<mxfile host="app.diagrams.net" modified="2022-08-17T16:46:34.891Z" agent="5.0 (Macintosh; Intel Mac OS X 10_15_7) AppleWebKit/537.36 (KHTML, like Gecko) Chrome/106.0.0.0 Safari/537.36" etag="U3VsSuU1ReNb0bjTuvvQ" version="20.2.4" type="github">
  <diagram id="Q5ROYzyT6asSNhyt8OYm" name="第 1 页">
    <mxGraphModel dx="1698" dy="293" grid="0" gridSize="10" guides="1" tooltips="1" connect="1" arrows="1" fold="1" page="0" pageScale="1" pageWidth="827" pageHeight="1169" math="0" shadow="0">
      <root>
        <mxCell id="0" />
        <mxCell id="1" parent="0" />
        <mxCell id="Fj2FBjJ9RsnhtNA-qQ7P-10" style="edgeStyle=orthogonalEdgeStyle;rounded=0;orthogonalLoop=1;jettySize=auto;html=1;fontSize=12;" edge="1" parent="1" source="Fj2FBjJ9RsnhtNA-qQ7P-1">
          <mxGeometry relative="1" as="geometry">
            <mxPoint x="84.5" y="267" as="targetPoint" />
          </mxGeometry>
        </mxCell>
        <mxCell id="Fj2FBjJ9RsnhtNA-qQ7P-1" value="&lt;b&gt;&lt;font style=&quot;font-size: 18px;&quot;&gt;Array.prototype&lt;/font&gt;&lt;/b&gt;" style="rounded=1;whiteSpace=wrap;html=1;" vertex="1" parent="1">
          <mxGeometry x="12" y="294" width="145" height="60" as="geometry" />
        </mxCell>
        <mxCell id="Fj2FBjJ9RsnhtNA-qQ7P-2" value="&lt;b&gt;&lt;font style=&quot;font-size: 18px;&quot;&gt;Function&amp;nbsp;&lt;/font&gt;&lt;/b&gt;" style="rounded=1;whiteSpace=wrap;html=1;" vertex="1" parent="1">
          <mxGeometry x="253" y="285" width="120" height="60" as="geometry" />
        </mxCell>
        <mxCell id="Fj2FBjJ9RsnhtNA-qQ7P-3" value="&lt;span style=&quot;font-size: 18px;&quot;&gt;&lt;b&gt;new Array(1)&lt;/b&gt;&lt;/span&gt;" style="rounded=1;whiteSpace=wrap;html=1;" vertex="1" parent="1">
          <mxGeometry x="-235" y="294" width="164" height="60" as="geometry" />
        </mxCell>
        <mxCell id="Fj2FBjJ9RsnhtNA-qQ7P-4" value="" style="endArrow=classic;html=1;rounded=0;fontSize=18;entryX=0;entryY=0.75;entryDx=0;entryDy=0;" edge="1" parent="1" target="Fj2FBjJ9RsnhtNA-qQ7P-1">
          <mxGeometry width="50" height="50" relative="1" as="geometry">
            <mxPoint x="-69" y="340" as="sourcePoint" />
            <mxPoint x="9" y="336" as="targetPoint" />
          </mxGeometry>
        </mxCell>
        <mxCell id="Fj2FBjJ9RsnhtNA-qQ7P-6" value="__proto__" style="edgeLabel;html=1;align=center;verticalAlign=middle;resizable=0;points=[];fontSize=12;" vertex="1" connectable="0" parent="Fj2FBjJ9RsnhtNA-qQ7P-4">
          <mxGeometry x="-0.6047" y="1" relative="1" as="geometry">
            <mxPoint x="18" y="9" as="offset" />
          </mxGeometry>
        </mxCell>
        <mxCell id="Fj2FBjJ9RsnhtNA-qQ7P-5" value="&lt;h1&gt;&lt;font style=&quot;font-size: 12px;&quot;&gt;函数的构造函数在原型上&lt;/font&gt;&lt;/h1&gt;" style="text;html=1;strokeColor=none;fillColor=none;spacing=5;spacingTop=-20;whiteSpace=wrap;overflow=hidden;rounded=0;fontSize=18;" vertex="1" parent="1">
          <mxGeometry x="-188" y="138" width="190" height="120" as="geometry" />
        </mxCell>
        <mxCell id="Fj2FBjJ9RsnhtNA-qQ7P-9" value="&lt;div style=&quot;text-align: left;&quot;&gt;&lt;b&gt;{&lt;/b&gt;&lt;/div&gt;&lt;b&gt;&amp;nbsp; &amp;nbsp; &amp;nbsp;consturctor: function Array{}{}&lt;br&gt;&lt;/b&gt;&lt;div style=&quot;text-align: left;&quot;&gt;&lt;b&gt;&amp;nbsp; &amp;nbsp; &amp;nbsp;map: function{}{},&lt;/b&gt;&lt;/div&gt;&lt;div style=&quot;text-align: left;&quot;&gt;&lt;b&gt;&amp;nbsp; &amp;nbsp; &amp;nbsp;__proto__:&amp;nbsp;&lt;/b&gt;&lt;/div&gt;&lt;div style=&quot;text-align: left;&quot;&gt;&lt;b&gt;}&lt;/b&gt;&lt;br&gt;&lt;/div&gt;" style="edgeLabel;html=1;align=center;verticalAlign=middle;resizable=0;points=[];fontSize=12;" vertex="1" connectable="0" parent="1">
          <mxGeometry x="19.99643607476197" y="244.0025603866781" as="geometry">
            <mxPoint x="88" y="11" as="offset" />
          </mxGeometry>
        </mxCell>
      </root>
    </mxGraphModel>
  </diagram>
</mxfile>
